<svg xmlns="http://www.w3.org/2000/svg" viewBox="0 0 128 128">
  <g stroke="#fff" stroke-width="7" fill="#f5693c" stroke-linejoin="round">
    <ellipse cx="32" cy="56" rx="11" ry="15" transform="rotate(-25 32 56)"/>
    <ellipse cx="54" cy="40" rx="12" ry="16" transform="rotate(-8 54 40)"/>
    <ellipse cx="78" cy="40" rx="12" ry="16" transform="rotate(8 78 40)"/>
    <ellipse cx="99" cy="56" rx="11" ry="15" transform="rotate(25 99 56)"/>
    <path d="M65 62c-18.5 0-34 14.5-34 31 0 11.3 8.3 17.5 17.5 17.5 6.2 0 10.8-2.6 16.5-2.6s10.3 2.6 16.5 2.6c9.2 0 17.5-6.2 17.5-17.5 0-16.5-15.5-31-34-31z"/>
  </g>
</svg>
